<?xml version="1.0" standalone="no"?>
<!DOCTYPE svg PUBLIC "-//W3C//DTD SVG 20010904//EN"
 "http://www.w3.org/TR/2001/REC-SVG-20010904/DTD/svg10.dtd">
<svg version="1.0" xmlns="http://www.w3.org/2000/svg"
 width="442.000000pt" height="442.000000pt" viewBox="0 0 442.000000 442.000000"
 preserveAspectRatio="xMidYMid meet">
<metadata>
Created by potrace 1.14, written by Peter Selinger 2001-2017
</metadata>
<g transform="translate(0.000000,442.000000) scale(0.100000,-0.100000)"
fill="#000000" stroke="none">
<path d="M2088 4415 c-3 -3 -57 -11 -118 -19 -38 -4 -94 -18 -105 -24 -5 -4
-14 -7 -20 -8 -5 -1 -35 -11 -65 -22 -30 -11 -90 -28 -133 -37 -171 -37 -344
-156 -454 -314 -18 -25 -36 -50 -40 -56 -10 -13 -86 -168 -112 -228 l-20 -47
-38 15 c-67 28 -143 87 -143 111 0 17 -16 27 -18 11 -11 -144 8 -235 64 -297
l36 -40 -23 -37 c-61 -100 -189 -233 -259 -267 -67 -34 -90 -39 -215 -51 -112
-10 -141 -24 -154 -73 -6 -22 -12 -81 -14 -132 l-3 -93 -50 -15 c-75 -21 -78
-28 -34 -68 21 -19 48 -37 59 -39 12 -2 25 -6 30 -9 8 -5 21 -56 27 -101 1
-15 22 -66 41 -102 10 -18 15 -34 13 -36 -3 -2 -28 -20 -57 -41 -91 -65 -213
-213 -258 -311 l-25 -54 2 -808 3 -808 75 -11 c99 -16 233 -11 295 11 154 53
273 174 326 330 7 22 12 44 11 49 -2 4 1 13 5 20 5 6 8 30 8 53 0 46 4 50 63
59 41 7 77 19 95 34 6 5 28 22 47 37 78 63 73 61 66 28 -3 -17 -8 -41 -11 -55
-3 -14 -7 -36 -10 -50 -24 -114 -28 -149 -28 -270 -1 -172 16 -336 46 -467 2
-6 18 -50 37 -97 l35 -86 1677 0 1678 0 -2 1171 -3 1170 -70 32 c-51 22 -88
31 -135 33 -58 2 -89 -1 -178 -20 -126 -27 -226 -101 -280 -208 -42 -82 -84
-208 -70 -208 6 0 6 -6 -2 -15 -7 -8 -13 -46 -14 -85 -3 -80 -7 -77 126 -86
40 -3 93 -7 118 -9 25 -2 88 -6 140 -9 137 -10 154 -12 157 -23 5 -15 -27 -38
-56 -40 -45 -2 -125 -14 -134 -20 -5 -3 -32 -7 -61 -8 -62 -3 -178 -37 -224
-65 -38 -23 -48 -44 -36 -69 9 -17 14 -17 109 5 55 13 116 26 135 29 19 3 45
8 58 11 21 4 82 -23 82 -37 0 -6 -36 -53 -70 -92 -97 -111 -249 -247 -277
-248 -26 -2 -27 -2 -65 -12 -16 -4 -28 -11 -28 -15 0 -5 -9 -18 -20 -30 -19
-20 -23 -21 -43 -8 -28 17 -39 15 -146 -28 -49 -20 -97 -36 -108 -36 -41 0
-130 61 -175 120 -71 93 -71 93 -140 87 -35 -3 -74 -8 -87 -11 -59 -13 -139
-39 -172 -56 -51 -26 -63 -11 -34 43 37 68 49 175 22 205 -15 17 -14 20 16 53
43 46 87 105 87 118 0 6 4 11 10 11 5 0 12 11 16 24 3 14 15 33 27 43 11 10
18 14 15 8 -3 -5 4 -11 15 -11 12 -1 35 -3 50 -5 30 -4 30 -1 13 -84 -9 -41
-40 -132 -54 -154 -16 -26 -16 -26 4 -6 19 19 64 116 64 139 1 22 45 101 58
104 8 1 11 -2 6 -9 -5 -9 -2 -10 9 -6 10 3 17 2 17 -3 0 -5 6 -7 14 -4 8 3 12
12 9 20 -4 12 1 11 31 -1 19 -8 44 -15 55 -15 11 0 22 -6 24 -12 3 -7 6 -3 6
9 l1 23 36 -20 c19 -11 33 -16 29 -10 -9 15 15 11 55 -8 31 -15 35 -22 36 -57
1 -22 -2 -62 -7 -90 -19 -99 -20 -109 -14 -103 4 3 8 12 9 20 1 7 8 31 14 53
6 22 14 75 17 119 6 90 11 102 31 81 18 -17 38 -10 30 10 -4 11 1 12 22 4 15
-4 36 -7 47 -5 11 3 23 5 28 5 17 2 5 38 -19 56 -32 24 -46 58 -79 190 -37
145 -38 168 -9 224 31 63 66 196 68 259 0 26 16 30 16 4 0 -30 55 -107 91
-128 35 -21 69 -22 151 -6 44 8 63 18 97 50 19 18 4 28 -46 31 -23 2 -115 106
-138 156 -37 82 -48 213 -31 375 7 61 16 179 18 225 3 58 -26 257 -40 280 -4
6 -7 15 -9 20 -1 6 -4 19 -6 31 -8 32 -80 177 -99 198 -10 11 -18 23 -18 27 0
15 -105 127 -179 192 -24 20 -40 37 -35 38 32 4 52 6 71 7 30 3 99 66 120 109
27 57 22 158 -10 220 -15 28 -32 55 -39 59 -10 6 -9 4 0 -9 8 -9 15 -47 17
-85 3 -76 -17 -139 -57 -173 -11 -11 -17 -19 -12 -19 5 0 -8 -9 -28 -20 -33
-17 -41 -18 -80 -6 -48 14 -144 72 -186 112 -50 46 -155 104 -322 177 -53 23
-227 77 -300 94 -55 13 -371 28 -382 18z m537 -2625 c-5 -24 12 -37 28 -21 8
8 14 3 23 -18 11 -27 16 -29 53 -26 22 2 45 6 51 10 5 3 10 -2 10 -12 0 -15 2
-16 10 -3 7 12 12 12 22 2 9 -9 5 -27 -23 -84 -28 -60 -69 -131 -83 -146 -2
-1 -77 42 -167 97 -90 56 -170 104 -178 109 -9 5 24 22 100 50 63 24 121 47
129 52 23 14 29 12 25 -10z"/>
<path d="M35 2650 c3 -5 11 -10 16 -10 6 0 29 -9 51 -20 48 -23 61 -26 33 -7
-30 20 -107 49 -100 37z"/>
<path d="M187 2569 c7 -7 15 -10 18 -7 3 3 -2 9 -12 12 -14 6 -15 5 -6 -5z"/>
<path d="M220 2556 c0 -2 8 -10 18 -17 15 -13 16 -12 3 4 -13 16 -21 21 -21
13z"/>
<path d="M2906 1423 c-6 -14 -5 -15 5 -6 7 7 10 15 7 18 -3 3 -9 -2 -12 -12z"/>
<path d="M0 57 c0 -42 4 -57 14 -57 11 0 11 10 4 53 -13 70 -18 71 -18 4z"/>
</g>
</svg>
